<?xml version="1.0" encoding="UTF-8" standalone="no"?>
<svg
   xmlns:dc="http://purl.org/dc/elements/1.1/"
   xmlns:cc="http://creativecommons.org/ns#"
   xmlns:rdf="http://www.w3.org/1999/02/22-rdf-syntax-ns#"
   xmlns:svg="http://www.w3.org/2000/svg"
   xmlns="http://www.w3.org/2000/svg"
   xmlns:sodipodi="http://sodipodi.sourceforge.net/DTD/sodipodi-0.dtd"
   xmlns:inkscape="http://www.inkscape.org/namespaces/inkscape"
   style="enable-background:new"
   height="512"
   viewBox="0 0 512.40002 512"
   width="512.4"
   version="1.1"
   id="svg35"
   sodipodi:docname="logo2.svg"
   inkscape:export-filename="/home/sidya/Images/UTPass/logo.svg.png"
   inkscape:export-xdpi="96"
   inkscape:export-ydpi="96"
   inkscape:version="0.92.4 5da689c313, 2019-01-14">
  <metadata
     id="metadata39">
    <rdf:RDF>
      <cc:Work
         rdf:about="">
        <dc:format>image/svg+xml</dc:format>
        <dc:type
           rdf:resource="http://purl.org/dc/dcmitype/StillImage" />
        <dc:title />
      </cc:Work>
    </rdf:RDF>
  </metadata>
  <sodipodi:namedview
     pagecolor="#ffffff"
     bordercolor="#666666"
     borderopacity="1"
     objecttolerance="10"
     gridtolerance="10"
     guidetolerance="10"
     inkscape:pageopacity="0"
     inkscape:pageshadow="2"
     inkscape:window-width="1918"
     inkscape:window-height="1060"
     id="namedview37"
     showgrid="false"
     inkscape:zoom="1.4142136"
     inkscape:cx="229.01251"
     inkscape:cy="273.79108"
     inkscape:window-x="1920"
     inkscape:window-y="18"
     inkscape:window-maximized="1"
     inkscape:current-layer="svg35"
     inkscape:measure-start="548.176,440.427"
     inkscape:measure-end="512.381,511.979" />
  <defs
     id="defs7">
    <linearGradient
       id="a"
       y2="493.82901"
       gradientUnits="userSpaceOnUse"
       x2="512"
       gradientTransform="matrix(1,0,0,1.076,0,-19.36)"
       y1="17.992565"
       x1="512">
      <stop
         style="stop-color:#eaeaea"
         offset="0"
         id="stop2" />
      <stop
         style="stop-color:#f4f4f4"
         offset="1"
         id="stop4" />
    </linearGradient>
  </defs>
  <rect
     style="fill:#aa0000;stroke-width:0.99960905;fill-opacity:1"
     id="rect270"
     width="512.38147"
     height="511.97943"
     x="0"
     y="0.020568848"
     ry="52.535595" />
  <path
     style="opacity:1;fill:#ffffff;fill-opacity:1"
     id="path4607"
     sodipodi:type="arc"
     sodipodi:cx="256.20001"
     sodipodi:cy="256"
     sodipodi:rx="220"
     sodipodi:ry="220"
     sodipodi:start="0"
     sodipodi:end="6.2188699"
     sodipodi:open="true"
     d="M 476.20001,256 A 220,220 0 0 1 259.73721,475.97156 220,220 0 0 1 36.313755,263.07348 220,220 0 0 1 245.59208,36.255895 220,220 0 0 1 475.74516,241.86036" />
  <ellipse
     style="fill:#aa0000"
     id="path274"
     transform="rotate(135)"
     ry="30"
     rx="200"
     cy="-362.18011"
     cx="-0.14142999" />
  <path
     d="m-208.3 605.6c-7.842 0-14.55 5.029-17.32 12.19-0.0612-0.00067-0.1208 0-0.1823 0-7.088 0-12.83 6.002-12.83 13.41 0 7.404 5.746 13.41 12.83 13.41h17.5 16.33c5.155 0 9.333-4.365 9.333-9.75 0-4.543-2.974-8.363-7-9.445 0.001-0.1029 0-0.2015 0-0.3047 0-10.77-8.357-19.5-18.67-19.5z"
     style="stroke-width:4;color:#000000;stroke:#ccc;enable-background:accumulate;display:none;fill:#fff"
     id="path19" />
  <path
     style="stroke-width:4;color:#000000;stroke:#ccc;enable-background:accumulate;display:none;fill:none"
     d="m288.9 828.1c-6.349 0-11.78 4.072-14.02 9.867-0.0496-0.00055-0.0978 0-0.1476 0-5.738 0-10.39 4.86-10.39 10.85 0 5.995 4.652 10.85 10.39 10.85h14.17 13.22c4.173 0 7.557-3.534 7.557-7.894 0-3.678-2.408-6.771-5.667-7.647 0.001-0.0833 0-0.1632 0-0.2467 0-8.719-6.766-15.79-15.11-15.79z"
     id="path21" />
  <g
     style="display:none"
     transform="translate(0 -558.4)"
     id="g33">
    <path
       d="m166.1 576.4h179.9c145.3 0 166.1 20.74 166.1 165.9v144.2c0 145.2-20.76 165.9-166.1 165.9h-179.9c-145.3 0-166.1-20-166.1-165.5v-144.2c0-145.2 20.76-165.9 166.1-165.9z"
       style="stroke:#00f;fill:#00f;display:inline;fill-opacity:.08118"
       id="path23" />
    <circle
       style="stroke-width:.8333;fill-opacity:.08118;color:#000000;stroke:#00f;enable-background:accumulate;display:inline;fill:#00f"
       cx="256"
       transform="matrix(1.2 0 0 1.2 -51.2 528.8)"
       cy="238"
       r="120"
       id="circle25" />
    <rect
       style="stroke-linejoin:round;fill-opacity:.08118;color:#000000;stroke:#00f;stroke-linecap:round;enable-background:accumulate;display:inline;fill:#00f"
       height="272"
       width="272"
       y="678.4"
       x="120"
       id="rect27" />
    <rect
       style="stroke-linejoin:round;fill-opacity:.08118;color:#000000;stroke:#00f;stroke-linecap:round;enable-background:accumulate;display:inline;fill:#00f"
       height="240"
       width="304"
       y="694.4"
       x="104"
       id="rect29" />
    <rect
       style="stroke-linejoin:round;fill-opacity:.08118;color:#000000;stroke:#00f;stroke-linecap:round;enable-background:accumulate;display:inline;fill:#00f"
       height="304"
       width="240"
       y="662.4"
       x="136"
       id="rect31" />
  </g>
  <g
     inkscape:groupmode="layer"
     id="layer1"
     inkscape:label="Layer 1"
     style="display:inline" />
  <circle
     style="opacity:1;fill:#aa0000;fill-opacity:1"
     id="path4592"
     cx="256.20001"
     cy="256"
     r="150" />
  <g
     id="g3863"
     transform="matrix(0.01370988,0,0,-0.01370988,174.97484,342.03325)"
     style="fill:#ffffff;stroke:none">
    <path
       id="path3861"
       d="m 5558.8962,12362.711 c -1289.2796,-103.518 -2263.2976,-736.393 -2793.8313,-1816.283 -94.108,-190.569 -182.3343,-408.194 -182.3343,-447.013 0,-9.411 -4.7055,-17.645 -9.4108,-17.645 -4.7053,0 -9.4108,-9.411 -10.5871,-19.999 -1.1763,-22.35 -7.0581,-44.7 -18.8217,-74.1099 -19.9979,-55.288 -91.7553,-337.612 -107.0479,-423.486 -3.5289,-22.35 -9.4106,-54.112 -12.9397,-69.404 -2.3527,-16.468 -8.2344,-55.288 -11.7635,-87.05 -3.5292,-32.937 -9.4108,-62.347 -11.7635,-65.876 -9.4108,-15.292 -28.2324,-222.3288 -32.9378,-368.1973 -1.1763,-31.7611 -5.8818,-56.4644 -11.7635,-56.4644 -4.7054,0 -3.529,-10.5874 3.529,-23.5272 9.4109,-16.4686 9.4109,-23.5271 0,-23.5271 -8.2344,0 -9.4108,-7.0575 -1.1764,-22.351 7.0583,-11.7625 9.4109,-24.7024 5.8819,-28.2321 -3.5291,-3.5289 -5.8819,-461.129 -4.7055,-1017.5426 l 1.1764,-1011.661 -30.5852,-23.5269 c -16.4688,-12.94 -81.168,-35.2906 -144.691,-50.583 -187.0396,-42.3487 -312.909,-87.0499 -428.1913,-150.5729 -128.2223,-70.581 -175.2763,-107.0478 -282.324,-215.2721 -242.3281,-244.6808 -392.9009,-658.756 -415.2516,-1138.7068 -5.8818,-116.4587 -4.7054,-3554.9297 1.1764,-3676.0938 9.4108,-205.8614 32.9378,-375.2558 54.1121,-403.4881 8.2345,-9.4108 8.2345,-14.1162 -1.1764,-14.1162 -8.2344,0 -10.5871,-5.8817 -4.7054,-15.2925 4.7054,-7.0582 9.4108,-18.8216 10.5872,-25.8798 1.1763,-5.8817 12.9398,-39.9958 27.056,-72.9336 12.9398,-34.11416 19.998,-62.34656 15.2926,-62.34656 -4.7054,0 -2.3528,-4.7054 3.529,-9.4108 11.7635,-8.2345 43.525,-71.7573 43.525,-84.6972 0,-3.529 7.0581,-14.1162 16.4689,-24.7033 9.4107,-10.5872 14.1162,-21.1744 10.5871,-24.7035 -3.529,-3.5289 7.0581,-19.9979 23.527,-37.6431 15.2926,-16.4689 29.4088,-34.1141 29.4088,-36.4668 0,-16.469 98.8134,-137.633 143.5147,-176.4526 28.2323,-24.7033 39.9959,-37.6432 27.0559,-28.2324 -21.1741,15.2926 -22.3505,15.2926 -7.058,-3.529 8.2344,-11.7635 19.998,-21.1743 25.8798,-21.1743 5.8816,0 19.9979,-9.4107 31.7614,-19.998 45.8776,-43.525 78.8155,-67.052 142.3382,-101.166 205.8613,-110.577 314.0856,-142.3384 612.8785,-179.9816 130.5748,-15.2927 542.2972,-17.6452 3671.3884,-16.4688 3653.7426,0 3673.7408,0 3898.4243,45.8775 259.9731,52.9359 467.0111,157.6309 624.6411,317.6146 189.392,190.5686 279.972,402.3117 316.439,736.39506 14.116,125.8694 17.645,478.7743 17.645,1995.0896 0,1014.0138 -2.353,1850.3986 -4.705,1858.6331 -3.529,9.4107 -8.235,74.11 -11.764,143.5146 -4.706,70.581 -9.412,131.7513 -11.764,136.4567 -3.528,4.7052 -8.234,31.7614 -11.763,59.9937 -19.999,168.2181 -89.403,402.3119 -161.16,544.6501 -35.291,67.052 -125.869,207.0377 -162.337,248.2099 -72.933,81.1682 -187.039,188.216 -204.684,192.9215 -15.293,3.5291 -43.525,35.2905 -44.701,51.7592 0,8.2346 -4.706,4.7055 -9.411,-8.2344 -9.411,-22.3506 -9.411,-22.3506 -17.646,3.5292 -5.881,16.4688 -15.292,24.7032 -24.703,21.1741 -9.411,-3.529 -22.351,2.3528 -29.408,11.7635 -8.235,9.411 -22.352,16.469 -30.585,16.469 -9.412,0 -16.469,5.8818 -16.469,11.7635 0,7.0581 -8.236,11.7635 -17.646,11.7635 -9.411,0 -17.645,5.8818 -17.645,11.7635 0,7.0581 -10.588,11.7635 -23.5266,11.7635 -12.9409,0 -23.5275,5.8818 -23.5275,12.9399 0,5.8817 -4.7052,8.2344 -11.7637,4.7054 -5.8813,-3.529 -11.7638,-1.1764 -11.7638,5.8817 0,7.0581 -4.7052,9.4109 -11.7637,5.8819 -5.8813,-3.5291 -11.7626,-2.3528 -11.7626,4.7052 0,5.8818 -9.4116,9.4109 -19.9982,7.0582 -11.7637,-1.1764 -35.29,4.7053 -52.9362,12.9398 -17.645,9.4108 -36.4661,15.2925 -41.1725,15.2925 -4.7053,-1.1763 -18.8211,1.1764 -29.4076,4.7055 -54.1122,21.1742 -63.5228,23.5269 -81.169,27.0561 -10.5865,2.3526 -31.7608,9.4107 -47.0537,15.2926 -15.293,5.8816 -31.762,9.4106 -35.2901,8.2342 -4.7052,0 -19.9982,9.4109 -35.2912,22.3508 -16.469,15.2925 -23.5263,16.4689 -17.645,5.8816 4.7053,-9.4106 -4.7053,-2.3526 -21.1742,15.2926 l -30.5848,32.9379 v 996.3686 c -1.1772,548.1789 -3.5293,1038.7174 -5.8825,1090.4768 -8.2345,137.6322 -16.469,242.3274 -22.3503,282.3241 -3.5292,28.232 -30.5847,198.802 -47.0537,299.969 -24.7035,147.043 -35.2912,199.98 -42.3485,199.98 -4.7053,0 -7.0585,11.762 -5.8825,27.055 1.1772,14.117 -1.176,31.761 -5.8813,37.644 -5.8813,7.058 -12.9397,28.232 -15.293,47.053 -10.5865,54.112 -16.4689,79.991 -29.4087,112.93 -7.0573,17.645 -9.4105,34.114 -7.0573,37.643 3.5281,3.529 -2.3532,25.88 -11.7638,49.407 -10.5877,24.7039 -18.8218,55.2879 -18.8218,69.4039 0,18.822 -2.3526,21.175 -10.5871,8.235 -8.2344,-11.763 -12.9398,-1.176 -18.8216,37.643 -4.7054,30.585 -14.1162,55.288 -19.998,55.288 -7.0581,0 -9.4107,10.588 -5.8817,23.527 3.529,12.941 1.1764,23.528 -4.7054,23.528 -5.8818,0 -10.5872,8.234 -10.5872,17.644 0,9.412 -4.7053,17.646 -11.7635,17.646 -5.8817,0 -7.058,8.235 -3.5289,19.998 5.8816,12.94 3.5289,16.468 -7.0583,9.411 -11.7633,-7.058 -12.9397,-2.352 -7.058,17.644 5.8817,19.999 4.7053,24.704 -5.8817,17.647 -9.4108,-5.883 -12.9399,-4.706 -7.058,3.529 8.2344,12.94 -32.9379,109.399 -112.9297,267.031 -25.8798,51.76 -64.6993,125.869 -83.5209,164.688 -19.998,38.82 -39.996,72.935 -44.7013,76.463 -3.529,3.53 -18.8217,29.41 -34.1142,57.641 -14.1162,28.233 -30.5851,57.642 -36.4667,64.7 -35.2906,42.349 -98.8135,132.927 -123.5168,175.277 -15.2925,27.055 -28.2324,44.7 -28.2324,39.995 0,-4.705 -7.0582,-2.353 -16.4689,5.881 -9.4109,8.235 -14.1162,18.823 -10.5873,23.528 2.3527,4.705 -8.2344,22.35 -24.7033,38.819 -17.6452,16.469 -30.5851,36.467 -30.5851,43.525 0,7.058 -3.529,9.411 -8.2345,5.882 -3.529,-4.706 -15.2925,2.352 -23.5269,15.292 -9.4109,12.941 -22.3507,21.175 -28.2324,17.645 -5.8818,-4.704 -10.5872,2.354 -10.5872,14.117 0,12.94 -23.527,45.878 -52.9358,74.109 -28.2324,28.233 -49.4066,55.29 -45.8776,61.171 3.5291,4.705 -4.7054,9.412 -17.6451,9.412 -12.9399,0 -25.8798,10.586 -30.5852,23.527 -3.5291,12.939 -15.2926,23.525 -24.7034,23.525 -9.4108,0 -16.4688,8.235 -16.4688,17.646 0,9.412 -8.2345,17.645 -18.8217,17.645 -9.4107,0 -14.1162,5.883 -10.5871,11.764 3.529,7.059 -1.1764,11.764 -10.5872,11.764 -10.5872,0 -18.8215,5.881 -18.8215,12.94 0,5.881 -3.5292,9.41 -8.2345,7.058 -5.8817,-3.53 -16.4689,1.176 -24.7034,10.587 -8.2344,9.41 -10.5871,16.469 -5.8818,16.469 4.7054,1.177 -4.7053,9.409 -22.3506,18.821 -18.8215,9.41 -32.9378,22.351 -32.9378,28.233 0,7.058 -8.2345,11.762 -17.6452,11.762 -9.4108,0 -17.6453,5.884 -17.6453,11.764 0,7.059 -5.8817,11.764 -11.7635,11.764 -7.0581,0 -24.7033,12.94 -39.9958,29.408 -15.2927,16.469 -30.5852,29.41 -35.2906,29.41 -8.2345,0 -78.8155,48.229 -89.4026,59.993 -3.529,3.53 -22.3506,15.294 -43.525,25.879 -19.9979,10.588 -43.5249,25.881 -52.9356,34.115 -21.1744,19.999 -69.4047,49.407 -168.2181,99.99 -44.7012,22.352 -85.8736,47.054 -89.4027,52.937 -3.529,5.88 -10.587,10.586 -14.1162,10.586 -4.7053,0 -30.5851,9.409 -57.6411,21.173 -439.9548,185.866 -782.2728,269.385 -1261.0472,307.029 -176.4524,14.115 -592.8804,12.939 -771.6856,-1.178 z m 558.7662,-1428.088 c 121.1641,-11.763 164.689,-17.645 282.324,-36.467 105.8717,-17.645 332.9071,-78.814 369.374,-99.99 19.9978,-10.586 87.0499,-36.466 92.9316,-35.289 11.7635,4.704 321.1436,-174.101 343.4942,-199.98 3.529,-3.529 27.0561,-21.175 51.7594,-41.172 25.8797,-18.822 57.6411,-44.703 70.581,-57.642 14.1162,-12.94 41.1722,-36.466 59.9939,-50.583 19.9979,-15.293 27.0561,-24.704 17.6451,-19.998 -9.4106,4.705 -1.1764,-7.058 18.8218,-25.879 31.7613,-28.233 115.2822,-125.87 184.6869,-216.449 11.7635,-15.292 31.7615,-47.054 44.7013,-69.404 12.9398,-22.351 32.9377,-56.465 45.8776,-76.463 22.3507,-35.2909 85.8736,-148.2199 88.2262,-158.8079 1.1764,-3.529 11.7635,-27.056 23.527,-52.936 11.7636,-25.879 21.1743,-50.583 19.998,-55.287 -1.1763,-5.883 2.3527,-9.412 7.0581,-9.412 5.8818,0 10.5872,-7.057 11.7636,-14.115 2.3527,-34.115 34.1141,-103.519 43.525,-95.284 4.7052,5.881 5.8816,3.528 1.1762,-4.706 -4.7054,-8.234 8.2345,-58.818 27.0561,-114.106 18.8215,-54.112 31.7614,-102.343 28.2324,-105.872 -3.5291,-3.529 0,-14.116 8.2344,-24.703 8.2345,-10.587 11.7635,-21.175 8.2345,-25.88 -4.7054,-3.528 -2.3526,-14.116 4.7054,-23.527 10.5871,-11.764 9.4107,-15.292 -2.3528,-15.292 -10.5871,-1.177 -9.4107,-5.882 5.8818,-17.646 12.9399,-9.41 17.6453,-17.645 9.4109,-17.645 -9.4109,0 -10.5873,-8.234 -1.1764,-31.762 7.0581,-18.822 14.1162,-43.525 16.4689,-56.465 9.4107,-57.6404 31.7615,-238.7981 34.1141,-270.56 0,-18.8212 5.8817,-38.8196 12.94,-43.5246 8.2344,-5.8813 7.058,-9.4111 0,-9.4111 -7.0583,0 -12.94,-10.5873 -12.94,-23.527 0,-12.94 4.7054,-23.5263 10.5872,-23.5263 5.8817,0 4.7054,-7.0585 -2.3527,-16.4696 -10.5871,-12.9399 -10.5871,-17.6449 1.1764,-23.5261 11.7635,-5.8823 11.7635,-8.2348 1.1763,-14.1172 -22.3507,-9.41 -18.8216,-28.2321 5.8817,-28.2321 11.7636,0 15.2925,-3.5289 7.0581,-9.4111 -18.8216,-11.7626 -21.1744,-261.1492 -3.529,-261.1492 9.4109,0 10.587,-4.7054 0,-15.2925 -9.4108,-11.7636 -14.1163,-252.9153 -15.2926,-831.6795 l -3.529,-816.3869 -39.9959,-23.527 c -39.996,-23.527 -65.8757,-23.527 -2019.7931,-28.2324 -1430.4416,-3.5291 -1979.797,-1.1764 -1985.6787,8.2344 -4.7054,7.0581 -25.8797,12.9398 -47.0541,12.9398 -81.1681,0 -76.4627,-69.4047 -77.639,1064.5967 -1.1763,563.4717 -1.1763,1025.7773 0,1029.306 1.1763,3.5298 3.5289,37.6434 5.8817,76.4629 4.7055,76.4627 11.7635,137.6332 30.5851,247.0328 7.0581,38.821 14.1161,83.521 15.2925,99.99 2.3527,16.47 7.0582,37.643 11.7635,48.231 4.7055,10.588 9.4109,31.762 11.7636,48.231 1.1763,15.292 5.8817,32.937 9.4108,38.819 3.529,7.058 10.5871,32.937 15.2926,58.817 9.4106,49.407 55.2884,187.04 83.5209,249.387 9.4106,19.997 16.4686,39.996 16.4686,45.877 0,38.819 221.1539,418.7799 290.5587,498.7729 42.3485,49.406 231.7408,235.27 281.1475,276.442 129.3987,109.401 468.1874,282.324 596.4094,304.674 8.2346,1.176 32.9379,8.235 55.2885,16.469 68.2283,22.352 321.1436,61.171 449.3658,68.228 67.0518,4.706 122.3404,8.235 123.5167,9.412 4.7054,3.528 183.5106,-3.529 256.4443,-10.588 z"
       inkscape:connector-curvature="0"
       style="fill:#ffffff;stroke-width:1.17635012" />
  </g>
  <path
     style="fill:#ffffff"
     id="path22"
     r="215.47145"
     cy="256.28613"
     cx="258.0957" />
  <rect
     style="fill:#aa0000"
     id="rect296"
     width="3.3671751"
     height="0.67343503"
     x="694.31152"
     y="177.3028"
     ry="0.33671752" />
</svg>
