<?xml version="1.0" encoding="UTF-8" standalone="no"?>
<svg
   xmlns:dc="http://purl.org/dc/elements/1.1/"
   xmlns:cc="http://creativecommons.org/ns#"
   xmlns:rdf="http://www.w3.org/1999/02/22-rdf-syntax-ns#"
   xmlns:svg="http://www.w3.org/2000/svg"
   xmlns="http://www.w3.org/2000/svg"
   xmlns:sodipodi="http://sodipodi.sourceforge.net/DTD/sodipodi-0.dtd"
   xmlns:inkscape="http://www.inkscape.org/namespaces/inkscape"
   style="enable-background:new"
   height="512"
   viewBox="0 0 512.40002 512"
   width="512.4"
   version="1.1"
   id="svg35"
   sodipodi:docname="logo_.svg"
   inkscape:export-filename="/home/sidya/Images/UTPass/logo.svg.png"
   inkscape:export-xdpi="96"
   inkscape:export-ydpi="96"
   inkscape:version="0.92.4 5da689c313, 2019-01-14">
  <metadata
     id="metadata39">
    <rdf:RDF>
      <cc:Work
         rdf:about="">
        <dc:format>image/svg+xml</dc:format>
        <dc:type
           rdf:resource="http://purl.org/dc/dcmitype/StillImage" />
        <dc:title />
      </cc:Work>
    </rdf:RDF>
  </metadata>
  <sodipodi:namedview
     pagecolor="#ffffff"
     bordercolor="#666666"
     borderopacity="1"
     objecttolerance="10"
     gridtolerance="10"
     guidetolerance="10"
     inkscape:pageopacity="0"
     inkscape:pageshadow="2"
     inkscape:window-width="1918"
     inkscape:window-height="1062"
     id="namedview37"
     showgrid="false"
     inkscape:zoom="0.74246212"
     inkscape:cx="255.42702"
     inkscape:cy="459.71045"
     inkscape:window-x="0"
     inkscape:window-y="18"
     inkscape:window-maximized="1"
     inkscape:current-layer="svg35" />
  <defs
     id="defs7">
    <linearGradient
       id="a"
       y2="493.82901"
       gradientUnits="userSpaceOnUse"
       x2="512"
       gradientTransform="matrix(1,0,0,1.076,0,-19.36)"
       y1="17.992565"
       x1="512">
      <stop
         style="stop-color:#eaeaea"
         offset="0"
         id="stop2" />
      <stop
         style="stop-color:#f4f4f4"
         offset="1"
         id="stop4" />
    </linearGradient>
  </defs>
  <path
     d="m-208.3 605.6c-7.842 0-14.55 5.029-17.32 12.19-0.0612-0.00067-0.1208 0-0.1823 0-7.088 0-12.83 6.002-12.83 13.41 0 7.404 5.746 13.41 12.83 13.41h17.5 16.33c5.155 0 9.333-4.365 9.333-9.75 0-4.543-2.974-8.363-7-9.445 0.001-0.1029 0-0.2015 0-0.3047 0-10.77-8.357-19.5-18.67-19.5z"
     style="stroke-width:4;color:#000000;stroke:#ccc;enable-background:accumulate;display:none;fill:#fff"
     id="path19" />
  <path
     style="stroke-width:4;color:#000000;stroke:#ccc;enable-background:accumulate;display:none;fill:none"
     d="m288.9 828.1c-6.349 0-11.78 4.072-14.02 9.867-0.0496-0.00055-0.0978 0-0.1476 0-5.738 0-10.39 4.86-10.39 10.85 0 5.995 4.652 10.85 10.39 10.85h14.17 13.22c4.173 0 7.557-3.534 7.557-7.894 0-3.678-2.408-6.771-5.667-7.647 0.001-0.0833 0-0.1632 0-0.2467 0-8.719-6.766-15.79-15.11-15.79z"
     id="path21" />
  <rect
     style="opacity:1;fill:#ffffff"
     id="rect829"
     width="520"
     height="517.14258"
     x="-1.9042969"
     y="-2.2851562" />
  <path
     style="opacity:1;fill:#c83737;stroke-width:2.54996824"
     d="M -1.9042969 -2.2851562 L -1.9042969 514.85742 L 518.0957 514.85742 L 518.0957 6.4179688 L 518.20898 6.4179688 L 518.20898 -2.1679688 L 515.45898 -2.1679688 C 515.41974 -2.2068547 515.38106 -2.2462886 515.3418 -2.2851562 L -1.9042969 -2.2851562 z M 256.0625 45.111328 C 275.81336 45.111328 294.91976 47.844827 313.05859 52.835938 C 316.25973 72.5 327.97134 90.606945 346.6543 101.34766 C 365.29902 112.05522 386.86569 113.12939 405.54102 106.09961 C 441.86977 141.68128 465.50239 190.06575 468.92578 243.97266 L 398.95117 245.00195 C 392.5643 171.95524 330.99328 114.6875 256.13867 114.6875 C 234.54838 114.6875 214.06194 119.47268 195.71875 127.98633 L 161.48438 67.15625 C 189.99553 53.101752 222.08427 45.154297 256.03711 45.154297 L 256.0625 45.111328 z M 137.70117 80.820312 L 173.62109 140.73438 C 136.73032 166.59346 112.61328 209.32707 112.61328 257.68555 C 112.61328 306.04394 136.72266 348.75225 173.62109 374.61133 L 137.70117 434.55078 C 94.704517 405.94292 62.743759 362.19147 49.458984 310.98242 C 64.963845 298.37866 74.886719 279.19233 74.886719 257.68555 C 74.886719 236.17617 64.963845 216.98731 49.458984 204.38867 C 62.746326 153.17958 94.730034 109.45358 137.70117 80.820312 z M 398.87109 270.36133 L 468.84961 271.38477 C 465.40581 325.29173 441.76801 373.6762 405.46484 409.25781 C 386.7895 402.22802 365.22789 403.28436 346.57812 414.00977 C 327.90539 424.76823 316.20145 442.87073 312.98242 462.51953 C 294.83338 467.5259 275.73464 470.25977 255.98633 470.25977 C 222.03351 470.25977 189.91922 462.30808 161.43359 448.23828 L 195.56641 387.30664 C 213.92494 395.81776 234.39858 400.60547 255.98633 400.60547 C 330.937 400.60547 392.42474 343.37418 398.87109 270.36133 z "
     id="path11" />
  <g
     style="display:none"
     transform="translate(0 -558.4)"
     id="g33">
    <path
       d="m166.1 576.4h179.9c145.3 0 166.1 20.74 166.1 165.9v144.2c0 145.2-20.76 165.9-166.1 165.9h-179.9c-145.3 0-166.1-20-166.1-165.5v-144.2c0-145.2 20.76-165.9 166.1-165.9z"
       style="stroke:#00f;fill:#00f;display:inline;fill-opacity:.08118"
       id="path23" />
    <circle
       style="stroke-width:.8333;fill-opacity:.08118;color:#000000;stroke:#00f;enable-background:accumulate;display:inline;fill:#00f"
       cx="256"
       transform="matrix(1.2 0 0 1.2 -51.2 528.8)"
       cy="238"
       r="120"
       id="circle25" />
    <rect
       style="stroke-linejoin:round;fill-opacity:.08118;color:#000000;stroke:#00f;stroke-linecap:round;enable-background:accumulate;display:inline;fill:#00f"
       height="272"
       width="272"
       y="678.4"
       x="120"
       id="rect27" />
    <rect
       style="stroke-linejoin:round;fill-opacity:.08118;color:#000000;stroke:#00f;stroke-linecap:round;enable-background:accumulate;display:inline;fill:#00f"
       height="240"
       width="304"
       y="694.4"
       x="104"
       id="rect29" />
    <rect
       style="stroke-linejoin:round;fill-opacity:.08118;color:#000000;stroke:#00f;stroke-linecap:round;enable-background:accumulate;display:inline;fill:#00f"
       height="304"
       width="240"
       y="662.4"
       x="136"
       id="rect31" />
  </g>
  <g
     inkscape:groupmode="layer"
     id="layer1"
     inkscape:label="Layer 1"
     style="display:inline" />
  <g
     id="g3863"
     transform="matrix(0.01370988,0,0,-0.01370988,174.97484,342.03325)"
     style="fill:#ffffff;stroke:none">
    <path
       id="path3861"
       d="m 5462.903,13593.93 c -1419.0832,-113.941 -2491.1644,-810.534 -3075.1119,-1999.146 -103.5827,-209.755 -200.6915,-449.29 -200.6915,-492.018 0,-10.358 -5.1792,-19.421 -10.3583,-19.421 -5.1791,0 -10.3583,-10.359 -11.653,-22.012 -1.2948,-24.601 -7.7687,-49.201 -20.7166,-81.572 -22.0113,-60.854 -100.9932,-371.602 -117.8254,-466.122 -3.8842,-24.6 -10.3582,-59.56 -14.2426,-76.392 -2.5895,-18.126 -9.0634,-60.854 -12.9478,-95.814 -3.8844,-36.253 -10.3582,-68.624 -12.9478,-72.508 -10.3583,-16.832 -31.0748,-244.713 -36.254,-405.2674 -1.2947,-34.9587 -6.4739,-62.1492 -12.9478,-62.1492 -5.1791,0 -3.8843,-11.6533 3.8843,-25.8959 10.3583,-18.1266 10.3583,-25.8958 0,-25.8958 -9.0634,0 -10.3582,-7.7681 -1.2948,-24.6012 7.7688,-12.9468 10.3583,-27.1895 6.474,-31.0746 -3.8844,-3.8841 -6.474,-507.555 -5.1792,-1119.9879 l 1.2948,-1113.5142 -33.6644,-25.8956 c -18.127,-14.2427 -89.34,-38.8436 -159.2584,-55.6757 -205.8706,-46.6122 -344.4125,-95.814 -471.3013,-165.7324 -141.1315,-77.6871 -192.9229,-117.8253 -310.7482,-236.9454 -266.7255,-269.3151 -432.45785,-725.079 -457.05875,-1253.3509 -6.47391,-128.1837 -5.17913,-3912.8372 1.29479,-4046.1999 10.35827,-226.5873 36.25395,-413.0362 59.56006,-444.111 9.06349,-10.3582 9.06349,-15.5374 -1.29478,-15.5374 -9.06349,0 -11.65306,-6.4739 -5.17914,-16.8321 5.17914,-7.7688 10.35828,-20.7166 11.65306,-28.4854 1.29478,-6.4738 14.24262,-44.0226 29.78002,-80.2765 14.24263,-37.5488 22.01133,-68.6236 16.8322,-68.6236 -5.17913,0 -2.58957,-5.1791 3.88435,-10.3582 12.94785,-9.0636 47.90701,-78.98184 47.90701,-93.22445 0,-3.88438 7.7687,-15.53741 18.12697,-27.19044 10.35828,-11.65314 15.53741,-23.30617 11.65306,-27.19055 -3.88435,-3.88427 7.76871,-22.01126 25.89568,-41.43305 16.83219,-18.12699 32.3696,-37.54878 32.3696,-40.13826 0,-18.12699 108.76186,-151.48981 157.96365,-194.21766 31.07481,-27.19043 44.02265,-41.43305 29.78002,-31.07481 -23.3061,16.8322 -24.60089,16.8322 -7.7687,-3.88438 9.06349,-12.94782 22.01133,-23.30606 28.48525,-23.30606 6.47392,0 22.01133,-10.35823 34.95915,-22.01137 50.4966,-47.90702 86.7506,-73.80267 156.6688,-111.35134 226.5873,-121.70979 345.7074,-156.66887 674.5826,-198.10204 143.7209,-16.8322 596.8953,-19.42167 4041.0207,-18.12688 4021.599,0 4043.6103,0 4290.9143,50.49649 286.147,58.26537 514.029,173.50108 687.53,349.59175 208.46,209.75495 308.159,442.81605 348.297,810.53475 15.538,138.5418 19.422,526.977 19.422,2195.9536 0,1116.1038 -2.59,2036.6951 -5.179,2045.7587 -3.885,10.3582 -9.064,81.5713 -12.948,157.9636 -5.18,77.687 -10.359,145.0158 -12.948,150.195 -3.884,5.179 -9.064,34.9591 -12.948,66.0339 -22.012,185.1541 -98.404,442.8162 -177.385,599.485 -38.844,73.8027 -138.542,227.882 -178.681,273.1994 -80.276,89.3401 -205.87,207.1654 -225.292,212.3446 -16.832,3.8844 -47.907,38.8436 -49.202,56.9704 0,9.0636 -5.179,5.1792 -10.358,-9.0634 -10.358,-24.6009 -10.358,-24.6009 -19.422,3.8844 -6.474,18.127 -16.832,27.1904 -27.19,23.306 -10.359,-3.8844 -24.601,2.5896 -32.37,12.9478 -9.063,10.3584 -24.601,18.127 -33.664,18.127 -10.359,0 -18.127,6.474 -18.127,12.9479 0,7.7687 -9.064,12.9479 -19.422,12.9479 -10.358,0 -19.422,6.4739 -19.422,12.9478 0,7.7687 -11.653,12.9478 -25.895,12.9478 -14.243,0 -25.896,6.4739 -25.896,14.2427 0,6.4739 -5.179,9.0634 -12.948,5.1791 -6.474,-3.8843 -12.948,-1.2948 -12.948,6.4739 0,7.7687 -5.179,10.3583 -12.948,6.474 -6.473,-3.8844 -12.947,-2.5896 -12.947,5.179 0,6.474 -10.359,10.3584 -22.012,7.7688 -12.948,-1.2948 -38.843,5.1791 -58.265,14.2426 -19.422,10.3582 -40.138,16.8322 -45.318,16.8322 -5.179,-1.2948 -20.716,1.2948 -32.369,5.1792 -59.56,23.306 -69.918,25.8956 -89.34,29.78 -11.653,2.5895 -34.9594,10.3582 -51.7916,16.8322 -16.8322,6.4738 -34.9591,10.3582 -38.8434,9.0634 -5.1792,0 -22.0114,10.3583 -38.8436,24.6009 -18.1269,16.8322 -25.8957,18.127 -19.4217,6.4739 5.1791,-10.3582 -5.1792,-2.5895 -23.3062,16.8322 l -33.6644,36.254 V 8568.874 c -1.2948,603.3692 -3.8842,1143.2947 -6.4738,1200.2651 -9.0636,151.4889 -18.127,266.7249 -24.601,310.7479 -3.8843,31.075 -33.6643,218.818 -51.7913,330.17 -27.1905,161.847 -38.8436,220.114 -46.6122,220.114 -5.1792,0 -7.7688,12.946 -6.474,29.779 1.2948,15.538 -1.2948,34.959 -6.4738,41.434 -6.474,7.768 -14.2426,31.074 -16.8322,51.79 -11.6532,59.56 -18.127,88.045 -32.3696,124.3 -7.7688,19.421 -10.3584,37.549 -7.7688,41.433 3.8844,3.884 -2.5896,28.485 -12.9478,54.381 -11.653,27.191 -20.7166,60.854 -20.7166,76.392 0,20.717 -2.5895,23.306 -11.653,9.064 -9.0635,-12.948 -14.2426,-1.295 -20.7165,41.433 -5.1792,33.664 -15.5374,60.854 -22.0114,60.854 -7.7687,0 -10.3582,11.654 -6.4739,25.896 3.8843,14.243 1.2948,25.896 -5.1791,25.896 -6.474,0 -11.6531,9.063 -11.6531,19.421 0,10.359 -5.1791,19.422 -12.9479,19.422 -6.4738,0 -7.7686,9.064 -3.8842,22.012 6.4738,14.242 3.8842,18.126 -7.7688,10.358 -12.9478,-7.769 -14.2426,-2.589 -7.7686,19.421 6.4738,22.012 5.179,27.191 -6.474,19.423 -10.3582,-6.475 -14.2426,-5.18 -7.7686,3.884 9.0634,14.243 -36.254,120.414 -124.2993,293.916 -28.4854,56.971 -71.2132,138.541 -91.9297,181.269 -22.0113,42.728 -44.0227,80.277 -49.2018,84.161 -3.8844,3.885 -20.7166,32.37 -37.5488,63.445 -15.5374,31.075 -33.6644,63.444 -40.1382,71.213 -38.8436,46.612 -108.7619,146.31 -135.9523,192.923 -16.8322,29.78 -31.0748,49.202 -31.0748,44.023 0,-5.18 -7.7688,-2.591 -18.127,6.473 -10.3584,9.064 -15.5374,20.717 -11.6532,25.896 2.5896,5.179 -9.0634,24.601 -27.1904,42.728 -19.4218,18.127 -33.6644,40.138 -33.6644,47.906 0,7.77 -3.8843,10.359 -9.0635,6.475 -3.8843,-5.18 -16.8322,2.589 -25.8956,16.832 -10.3583,14.243 -24.601,23.307 -31.0748,19.421 -6.474,-5.178 -11.6532,2.591 -11.6532,15.538 0,14.243 -25.8956,50.497 -58.2652,81.571 -31.0748,31.075 -54.3809,60.856 -50.4966,67.329 3.8844,5.179 -5.1791,10.359 -19.4217,10.359 -14.2426,0 -28.4852,11.653 -33.6644,25.896 -3.8844,14.242 -16.8322,25.894 -27.1904,25.894 -10.3584,0 -18.127,9.064 -18.127,19.423 0,10.359 -9.0636,19.421 -20.7166,19.421 -10.3582,0 -15.5374,6.475 -11.653,12.948 3.8843,7.769 -1.2948,12.948 -11.6531,12.948 -11.6531,0 -20.7165,6.474 -20.7165,14.243 0,6.473 -3.8844,10.358 -9.0635,7.769 -6.4739,-3.885 -18.127,1.295 -27.1905,11.652 -9.0635,10.359 -11.6531,18.128 -6.4739,18.128 5.1791,1.295 -5.1792,10.357 -24.6009,20.716 -20.7165,10.358 -36.2539,24.601 -36.2539,31.075 0,7.769 -9.0636,12.947 -19.4218,12.947 -10.3582,0 -19.4218,6.475 -19.4218,12.948 0,7.77 -6.4739,12.948 -12.9478,12.948 -7.7687,0 -27.1905,14.243 -44.0227,32.37 -16.8322,18.127 -33.6644,32.37 -38.8435,32.37 -9.0635,0 -86.7505,53.085 -98.4036,66.033 -3.8843,3.885 -24.6009,16.833 -47.907,28.485 -22.0113,11.654 -47.907,28.486 -58.2652,37.55 -23.3062,22.011 -76.3923,54.381 -185.1541,110.056 -49.2018,24.602 -94.5193,51.791 -98.4037,58.266 -3.8843,6.473 -11.653,11.653 -15.5374,11.653 -5.1791,0 -33.6644,10.357 -63.4444,23.305 -484.2491,204.577 -861.0313,296.506 -1388.0084,337.939 -194.2175,15.537 -652.5711,14.243 -849.3783,-1.295 z m 615.0224,-1571.867 c 133.3628,-12.948 181.2697,-19.422 310.7482,-40.139 116.5306,-19.421 366.4238,-86.75 406.5622,-110.057 22.0112,-11.652 95.814,-40.137 102.2879,-38.842 12.9478,5.178 353.476,-191.629 378.0769,-220.114 3.8843,-3.884 29.7801,-23.307 56.9705,-45.317 28.4852,-20.717 63.4444,-49.203 77.687,-63.445 15.5374,-14.243 45.3175,-40.138 66.034,-55.676 22.0113,-16.832 29.7801,-27.191 19.4217,-22.011 -10.3582,5.179 -1.2948,-7.769 20.7166,-28.485 34.9592,-31.075 126.8889,-138.542 203.2811,-238.24 12.9478,-16.832 34.9592,-51.792 49.2018,-76.392 14.2426,-24.601 36.2539,-62.15 50.4965,-84.161 24.601,-38.844 94.5193,-163.143 97.1088,-174.797 1.2948,-3.884 12.9479,-29.78 25.8957,-58.265 12.9479,-28.485 23.3061,-55.676 22.0114,-60.854 -1.2948,-6.475 2.5895,-10.359 7.7687,-10.359 6.4739,0 11.653,-7.768 12.9478,-15.537 2.5896,-37.549 37.5487,-113.941 47.9071,-104.877 5.179,6.473 6.4738,3.884 1.2947,-5.18 -5.1791,-9.063 9.0635,-64.739 29.7801,-125.594 20.7164,-59.56 34.9591,-112.646 31.0748,-116.531 -3.8844,-3.884 0,-15.537 9.0634,-27.19 9.0635,-11.653 12.9479,-23.307 9.0635,-28.485 -5.1791,-3.884 -2.5895,-15.538 5.1791,-25.896 11.6531,-12.948 10.3583,-16.832 -2.5895,-16.832 -11.6531,-1.295 -10.3583,-6.474 6.4739,-19.422 14.2426,-10.358 19.4218,-19.422 10.3583,-19.422 -10.3583,0 -11.6531,-9.063 -1.2948,-34.959 7.7687,-20.717 15.5374,-47.907 18.127,-62.15 10.3582,-63.444 34.9592,-262.8404 37.5487,-297.8001 0,-20.7161 6.4739,-42.7279 14.2427,-47.9066 9.0634,-6.4734 7.7686,-10.3586 0,-10.3586 -7.7688,0 -14.2427,-11.6532 -14.2427,-25.8958 0,-14.2427 5.1791,-25.8948 11.6531,-25.8948 6.4738,0 5.1791,-7.7692 -2.5896,-18.1278 -11.653,-14.2426 -11.653,-19.4213 1.2948,-25.8947 12.9478,-6.4745 12.9478,-9.0639 1.2948,-15.5384 -24.601,-10.3575 -20.7166,-31.0746 6.4738,-31.0746 12.948,0 16.8322,-3.8841 7.7688,-10.3586 -20.7166,-12.9468 -23.3062,-287.4415 -3.8844,-287.4415 10.3584,0 11.653,-5.1791 0,-16.8321 -10.3582,-12.948 -15.5374,-278.3786 -16.8322,-915.4123 l -3.8843,-898.5801 -44.0227,-25.8957 c -44.0227,-25.8957 -72.5079,-25.8957 -2223.1441,-31.0748 -1574.4573,-3.8844 -2179.1214,-1.2948 -2185.5953,9.0635 -5.1791,7.7687 -28.4852,14.2426 -51.7914,14.2426 -89.34,0 -84.1609,-76.3923 -85.4556,1171.7794 -1.2948,620.2016 -1.2948,1129.0517 0,1132.9357 1.2947,3.8852 3.8842,41.4332 6.4738,84.161 5.1792,84.161 12.9478,151.4901 33.6644,271.9043 7.7688,42.729 15.5374,91.93 16.8322,110.057 2.5896,18.128 7.7688,41.433 12.9478,53.086 5.1792,11.654 10.3584,34.96 12.9479,53.087 1.2947,16.832 6.4739,36.253 10.3583,42.728 3.8843,7.768 11.653,36.253 16.8322,64.738 10.3582,54.381 60.8548,205.871 91.9297,274.495 10.3582,22.011 18.1268,44.023 18.1268,50.496 0,42.728 243.4195,460.943 319.8118,548.989 46.6122,54.381 255.0723,258.957 309.4533,304.274 142.4263,120.415 515.324,310.748 656.4554,335.349 9.0636,1.295 36.254,9.063 60.8549,18.127 75.0974,24.602 353.476,67.329 494.6075,75.097 73.8026,5.179 134.6576,9.064 135.9523,10.359 5.1791,3.884 201.9863,-3.884 282.2629,-11.653 z"
       inkscape:connector-curvature="0"
       style="fill:#ffffff;stroke-width:1.29478395" />
  </g>
</svg>
